<?xml version="1.0" encoding="UTF-8" standalone="no"?>
<!-- Created with Serif DrawPlus 11, 0, 0, 18 (Mar 20, 15:09:53) (http://www.serif.com) -->
<svg version="1.1" xmlns="http://www.w3.org/2000/svg" xmlns:xlink="http://www.w3.org/1999/xlink" xmlns:inkscape="http://www.inkscape.org/namespaces/inkscape" width="722.063" height="722.065">
	<g id="dp_group001" transform="matrix(1,0,0,1,-37.468,-134.985)">
		<path id="dp_path002" fill="#eb1313" fill-rule="evenodd" stroke="black" stroke-width="2" d="M 398.499,136.019 C 461.692,136.019 523.771,152.653 578.497,184.249 L 398.499,496.017 Z "/>
		<path id="dp_path003" fill="yellow" fill-rule="evenodd" stroke="black" stroke-width="2" d="M 578.497,184.249 C 633.224,215.847 678.669,261.292 710.265,316.019 L 398.499,496.017 Z "/>
		<path id="dp_path004" fill="#13eb7f" fill-rule="evenodd" stroke="black" stroke-width="2" d="M 710.265,316.019 C 741.861,370.745 758.496,432.824 758.496,496.017 L 398.499,496.017 Z "/>
		<path id="dp_path005" fill="#eb1313" fill-rule="evenodd" stroke="black" stroke-width="2" d="M 758.496,496.017 C 758.496,559.211 741.861,621.289 710.265,676.016 L 398.499,496.017 Z "/>
		<path id="dp_path006" fill="yellow" fill-rule="evenodd" stroke="black" stroke-width="2" d="M 710.265,676.016 C 678.669,730.743 633.224,776.188 578.497,807.785 L 398.499,496.017 Z "/>
		<path id="dp_path007" fill="#13eb7f" fill-rule="evenodd" stroke="black" stroke-width="2" d="M 578.497,807.785 C 523.771,839.381 461.692,856.016 398.499,856.016 L 398.499,496.017 Z "/>
		<path id="dp_path008" fill="#eb1313" fill-rule="evenodd" stroke="black" stroke-width="2" d="M 398.499,856.016 C 335.305,856.016 273.227,839.381 218.5,807.785 L 398.499,496.017 Z "/>
		<path id="dp_path009" fill="yellow" fill-rule="evenodd" stroke="black" stroke-width="2" d="M 218.5,807.785 C 163.773,776.188 118.328,730.743 86.732,676.016 L 398.499,496.017 Z "/>
		<path id="dp_path010" fill="#13eb7f" fill-rule="evenodd" stroke="black" stroke-width="2" d="M 86.732,676.016 C 55.136,621.289 38.5013,559.211 38.5013,496.017 L 398.499,496.017 Z "/>
		<path id="dp_path011" fill="#eb1313" fill-rule="evenodd" stroke="black" stroke-width="2" d="M 38.5013,496.017 C 38.5013,432.824 55.136,370.745 86.732,316.019 L 398.499,496.017 Z "/>
		<path id="dp_path012" fill="yellow" fill-rule="evenodd" stroke="black" stroke-width="2" d="M 86.732,316.019 C 118.328,261.292 163.773,215.847 218.5,184.249 L 398.499,496.017 Z "/>
		<path id="dp_path013" fill="#13eb7f" fill-rule="evenodd" stroke="black" stroke-width="2" d="M 218.5,184.249 C 273.227,152.653 335.305,136.019 398.499,136.019 L 398.499,496.017 Z "/>
	</g>
</svg>